<svg width="184" height="88" viewBox="0 0 184 88" fill="none" xmlns="http://www.w3.org/2000/svg">
<g filter="url(#filter0_f_250_516)">
<path d="M28 10C18.0589 10 10 18.0589 10 28V60C10 69.9411 18.0589 78 28 78H156C165.941 78 174 69.9411 174 60V28C174 18.0589 165.941 10 156 10H28Z" stroke="#36A7DB" stroke-width="4"/>
</g>
<path d="M13 28C13 19.7157 19.7157 13 28 13H156C164.284 13 171 19.7157 171 28V60C171 68.2843 164.284 75 156 75H28C19.7157 75 13 68.2843 13 60V28Z" stroke="white" stroke-width="2"/>
<g filter="url(#filter1_f_250_516)">
<path d="M81.816 35.392V52H79.632V39.616L74.112 52H72.576L67.032 39.592V52H64.848V35.392H67.2L73.344 49.12L79.488 35.392H81.816ZM91.2559 52.216C90.0239 52.216 88.9039 51.936 87.8959 51.376C86.9039 50.816 86.1199 50.024 85.5439 49C84.9839 47.96 84.7039 46.76 84.7039 45.4C84.7039 44.056 84.9919 42.872 85.5679 41.848C86.1599 40.808 86.9599 40.016 87.9679 39.472C88.9759 38.912 90.1039 38.632 91.3519 38.632C92.5999 38.632 93.7279 38.912 94.7359 39.472C95.7439 40.016 96.5359 40.8 97.1119 41.824C97.7039 42.848 97.9999 44.04 97.9999 45.4C97.9999 46.76 97.6959 47.96 97.0879 49C96.4959 50.024 95.6879 50.816 94.6639 51.376C93.6399 51.936 92.5039 52.216 91.2559 52.216ZM91.2559 50.296C92.0399 50.296 92.7759 50.112 93.4639 49.744C94.1519 49.376 94.7039 48.824 95.1199 48.088C95.5519 47.352 95.7679 46.456 95.7679 45.4C95.7679 44.344 95.5599 43.448 95.1439 42.712C94.7279 41.976 94.1839 41.432 93.5119 41.08C92.8399 40.712 92.1119 40.528 91.3279 40.528C90.5279 40.528 89.7919 40.712 89.1199 41.08C88.4639 41.432 87.9359 41.976 87.5359 42.712C87.1359 43.448 86.9359 44.344 86.9359 45.4C86.9359 46.472 87.1279 47.376 87.5119 48.112C87.9119 48.848 88.4399 49.4 89.0959 49.768C89.7519 50.12 90.4719 50.296 91.2559 50.296ZM103.055 40.984C103.439 40.232 103.983 39.648 104.687 39.232C105.407 38.816 106.279 38.608 107.303 38.608V40.864H106.727C104.279 40.864 103.055 42.192 103.055 44.848V52H100.871V38.848H103.055V40.984ZM121.825 44.92C121.825 45.336 121.801 45.776 121.753 46.24H111.241C111.321 47.536 111.761 48.552 112.561 49.288C113.377 50.008 114.361 50.368 115.513 50.368C116.457 50.368 117.241 50.152 117.865 49.72C118.505 49.272 118.953 48.68 119.209 47.944H121.561C121.209 49.208 120.505 50.24 119.449 51.04C118.393 51.824 117.081 52.216 115.513 52.216C114.265 52.216 113.145 51.936 112.153 51.376C111.177 50.816 110.409 50.024 109.849 49C109.289 47.96 109.009 46.76 109.009 45.4C109.009 44.04 109.281 42.848 109.825 41.824C110.369 40.8 111.129 40.016 112.105 39.472C113.097 38.912 114.233 38.632 115.513 38.632C116.761 38.632 117.865 38.904 118.825 39.448C119.785 39.992 120.521 40.744 121.033 41.704C121.561 42.648 121.825 43.72 121.825 44.92ZM119.569 44.464C119.569 43.632 119.385 42.92 119.017 42.328C118.649 41.72 118.145 41.264 117.505 40.96C116.881 40.64 116.185 40.48 115.417 40.48C114.313 40.48 113.369 40.832 112.585 41.536C111.817 42.24 111.377 43.216 111.265 44.464H119.569Z" fill="#36A7DB"/>
<path d="M81.816 35.392H83.816V33.392H81.816V35.392ZM81.816 52V54H83.816V52H81.816ZM79.632 52H77.632V54H79.632V52ZM79.632 39.616H81.632L77.8053 38.8018L79.632 39.616ZM74.112 52V54H75.4102L75.9387 52.8142L74.112 52ZM72.576 52L70.75 52.8159L71.2791 54H72.576V52ZM67.032 39.592L68.858 38.7761L65.032 39.592H67.032ZM67.032 52V54H69.032V52H67.032ZM64.848 52H62.848V54H64.848V52ZM64.848 35.392V33.392H62.848V35.392H64.848ZM67.2 35.392L69.0255 34.575L68.4961 33.392H67.2V35.392ZM73.344 49.12L71.5185 49.937L73.344 54.0159L75.1695 49.937L73.344 49.12ZM79.488 35.392V33.392H78.1919L77.6625 34.575L79.488 35.392ZM79.816 35.392V52H83.816V35.392H79.816ZM81.816 50H79.632V54H81.816V50ZM81.632 52V39.616H77.632V52H81.632ZM77.8053 38.8018L72.2853 51.1858L75.9387 52.8142L81.4587 40.4302L77.8053 38.8018ZM74.112 50H72.576V54H74.112V50ZM74.402 51.1841L68.858 38.7761L65.206 40.4079L70.75 52.8159L74.402 51.1841ZM65.032 39.592V52H69.032V39.592H65.032ZM67.032 50H64.848V54H67.032V50ZM66.848 52V35.392H62.848V52H66.848ZM64.848 37.392H67.2V33.392H64.848V37.392ZM65.3745 36.209L71.5185 49.937L75.1695 48.303L69.0255 34.575L65.3745 36.209ZM75.1695 49.937L81.3135 36.209L77.6625 34.575L71.5185 48.303L75.1695 49.937ZM79.488 37.392H81.816V33.392H79.488V37.392ZM87.8959 51.376L86.9127 53.1177L86.9246 53.1243L87.8959 51.376ZM85.5439 49L83.7829 49.9482L83.7917 49.9644L83.8007 49.9805L85.5439 49ZM85.5679 41.848L83.8297 40.8586L83.8247 40.8675L85.5679 41.848ZM87.9679 39.472L88.9177 41.232L88.9285 41.2262L88.9392 41.2203L87.9679 39.472ZM94.7359 39.472L93.7646 41.2203L93.7753 41.2262L93.786 41.232L94.7359 39.472ZM97.1119 41.824L95.3687 42.8045L95.3745 42.8148L95.3804 42.825L97.1119 41.824ZM97.0879 49L95.3613 47.9906L95.3564 47.999L97.0879 49ZM94.6639 51.376L95.6235 53.1307L94.6639 51.376ZM95.1199 48.088L93.395 47.0756L93.3868 47.0897L93.3787 47.1039L95.1199 48.088ZM93.5119 41.08L92.5512 42.8342L92.5675 42.8431L92.5839 42.8517L93.5119 41.08ZM89.1199 41.08L90.0655 42.8423L90.073 42.8383L90.0805 42.8342L89.1199 41.08ZM87.5359 42.712L89.2931 43.667V43.667L87.5359 42.712ZM87.5119 48.112L85.7387 49.0371L85.7465 49.0521L85.7546 49.067L87.5119 48.112ZM89.0959 49.768L88.1174 51.5123L88.1337 51.5215L88.1502 51.5303L89.0959 49.768ZM91.2559 50.216C90.3398 50.216 89.5577 50.0113 88.8672 49.6277L86.9246 53.1243C88.25 53.8607 89.708 54.216 91.2559 54.216V50.216ZM88.8791 49.6344C88.2154 49.2597 87.6899 48.7356 87.287 48.0195L83.8007 49.9805C84.5499 51.3124 85.5923 52.3723 86.9127 53.1176L88.8791 49.6344ZM87.3048 48.0518C86.924 47.3447 86.7039 46.4795 86.7039 45.4H82.7039C82.7039 47.0405 83.0437 48.5753 83.7829 49.9482L87.3048 48.0518ZM86.7039 45.4C86.7039 44.3494 86.9264 43.5123 87.311 42.8285L83.8247 40.8675C83.0574 42.2317 82.7039 43.7626 82.7039 45.4H86.7039ZM87.306 42.8374C87.7213 42.1078 88.2547 41.5899 88.9177 41.232L87.018 37.712C85.6651 38.4421 84.5984 39.5082 83.8297 40.8586L87.306 42.8374ZM88.9392 41.2203C89.6259 40.8388 90.415 40.632 91.3519 40.632V36.632C89.7928 36.632 88.3259 36.9852 86.9966 37.7237L88.9392 41.2203ZM91.3519 40.632C92.2888 40.632 93.0779 40.8388 93.7646 41.2203L95.7072 37.7237C94.3779 36.9852 92.911 36.632 91.3519 36.632V40.632ZM93.786 41.232C94.4523 41.5916 94.9731 42.1012 95.3687 42.8045L98.855 40.8435C98.0987 39.4988 97.0355 38.4404 95.6857 37.712L93.786 41.232ZM95.3804 42.825C95.7716 43.5016 95.9999 44.3381 95.9999 45.4H99.9999C99.9999 43.7419 99.6362 42.1944 98.8433 40.823L95.3804 42.825ZM95.9999 45.4C95.9999 46.4519 95.7681 47.2948 95.3613 47.9906L98.8145 50.0094C99.6237 48.6252 99.9999 47.0681 99.9999 45.4H95.9999ZM95.3564 47.999C94.9452 48.7103 94.4023 49.2395 93.7043 49.6213L95.6235 53.1307C96.9735 52.3925 98.0466 51.3377 98.8193 50.001L95.3564 47.999ZM93.7043 49.6213C92.9948 50.0092 92.1924 50.216 91.2559 50.216V54.216C92.8153 54.216 94.2849 53.8628 95.6235 53.1307L93.7043 49.6213ZM91.2559 52.296C92.3673 52.296 93.4275 52.0316 94.4072 51.5076L92.5206 47.9804C92.1242 48.1924 91.7124 48.296 91.2559 48.296V52.296ZM94.4072 51.5076C95.4576 50.9457 96.2746 50.1096 96.861 49.0721L93.3787 47.1039C93.1332 47.5384 92.8462 47.8063 92.5206 47.9804L94.4072 51.5076ZM96.8447 49.1004C97.4951 47.9924 97.7679 46.7281 97.7679 45.4H93.7679C93.7679 46.1839 93.6087 46.7116 93.395 47.0756L96.8447 49.1004ZM97.7679 45.4C97.7679 44.0839 97.508 42.8301 96.885 41.7279L93.4028 43.6961C93.6117 44.0659 93.7679 44.6041 93.7679 45.4H97.7679ZM96.885 41.7279C96.3019 40.6962 95.4914 39.8591 94.4399 39.3083L92.5839 42.8517C92.8764 43.0049 93.1539 43.2558 93.4028 43.6961L96.885 41.7279ZM94.4725 39.3258C93.4989 38.7927 92.4395 38.528 91.3279 38.528V42.528C91.7843 42.528 92.1808 42.6313 92.5512 42.8342L94.4725 39.3258ZM91.3279 38.528C90.2075 38.528 89.1389 38.7893 88.1592 39.3258L90.0805 42.8342C90.4448 42.6347 90.8483 42.528 91.3279 42.528V38.528ZM88.1742 39.3177C87.133 39.8764 86.3407 40.7228 85.7786 41.757L89.2931 43.667C89.5311 43.2292 89.7948 42.9876 90.0655 42.8423L88.1742 39.3177ZM85.7786 41.757C85.1831 42.8528 84.9359 44.0956 84.9359 45.4H88.9359C88.9359 44.5924 89.0887 44.0432 89.2931 43.667L85.7786 41.757ZM84.9359 45.4C84.9359 46.7032 85.1686 47.9445 85.7387 49.0371L89.285 47.1869C89.0871 46.8075 88.9359 46.2408 88.9359 45.4H84.9359ZM85.7546 49.067C86.3135 50.0954 87.0961 50.9394 88.1174 51.5123L90.0744 48.0237C89.7837 47.8606 89.5102 47.6006 89.2691 47.157L85.7546 49.067ZM88.1502 51.5303C89.1126 52.0467 90.16 52.296 91.2559 52.296V48.296C90.7838 48.296 90.3912 48.1933 90.0415 48.0057L88.1502 51.5303ZM103.055 40.984H101.055L104.837 41.8936L103.055 40.984ZM104.687 39.232L103.687 37.5003L103.678 37.5052L103.67 37.5101L104.687 39.232ZM107.303 38.608H109.303V36.608H107.303V38.608ZM107.303 40.864V42.864H109.303V40.864H107.303ZM103.055 52V54H105.055V52H103.055ZM100.871 52H98.8714V54H100.871V52ZM100.871 38.848V36.848H98.8714V38.848H100.871ZM103.055 38.848H105.055V36.848H103.055V38.848ZM104.837 41.8936C105.054 41.4676 105.338 41.1704 105.705 40.9539L103.67 37.5101C102.629 38.1256 101.825 38.9964 101.274 40.0744L104.837 41.8936ZM105.688 40.9637C106.041 40.7599 106.55 40.608 107.303 40.608V36.608C106.009 36.608 104.774 36.8721 103.687 37.5003L105.688 40.9637ZM105.303 38.608V40.864H109.303V38.608H105.303ZM107.303 38.864H106.727V42.864H107.303V38.864ZM106.727 38.864C105.151 38.864 103.614 39.2991 102.503 40.5045C101.42 41.6792 101.055 43.2503 101.055 44.848H105.055C105.055 43.7897 105.303 43.3688 105.444 43.2155C105.557 43.0929 105.856 42.864 106.727 42.864V38.864ZM101.055 44.848V52H105.055V44.848H101.055ZM103.055 50H100.871V54H103.055V50ZM102.871 52V38.848H98.8714V52H102.871ZM100.871 40.848H103.055V36.848H100.871V40.848ZM101.055 38.848V40.984H105.055V38.848H101.055ZM121.753 46.24V48.24H123.556L123.742 46.4458L121.753 46.24ZM111.241 46.24V44.24H109.113L109.244 46.3632L111.241 46.24ZM112.561 49.288L111.206 50.7599L111.222 50.7739L111.237 50.7877L112.561 49.288ZM117.865 49.72L119.003 51.3644L119.011 51.3585L117.865 49.72ZM119.209 47.944V45.944H117.787L117.32 47.287L119.209 47.944ZM121.561 47.944L123.487 48.4805L124.194 45.944H121.561V47.944ZM119.449 51.04L120.641 52.6458L120.649 52.64L120.656 52.6342L119.449 51.04ZM112.153 51.376L111.157 53.1108L111.169 53.1176L112.153 51.376ZM109.849 49L108.088 49.9482L108.094 49.9596L109.849 49ZM109.825 41.824L111.591 42.7623L109.825 41.824ZM112.105 39.472L113.078 41.219L113.088 41.2136L112.105 39.472ZM118.825 39.448L117.839 41.188L117.839 41.188L118.825 39.448ZM121.033 41.704L119.268 42.6452L119.277 42.6628L119.287 42.6803L121.033 41.704ZM119.569 44.464V46.464H121.569V44.464H119.569ZM119.017 42.328L117.306 43.3636L117.312 43.3738L117.318 43.3839L119.017 42.328ZM117.505 40.96L116.592 42.7396L116.619 42.7535L116.646 42.7666L117.505 40.96ZM112.585 41.536L111.248 40.0479L111.241 40.0548L111.233 40.0617L112.585 41.536ZM111.265 44.464L109.273 44.2852L109.077 46.464H111.265V44.464ZM119.825 44.92C119.825 45.2596 119.805 45.6305 119.763 46.0342L123.742 46.4458C123.796 45.9215 123.825 45.4124 123.825 44.92H119.825ZM121.753 44.24H111.241V48.24H121.753V44.24ZM109.244 46.3632C109.35 48.068 109.954 49.6078 111.206 50.7599L113.915 47.8161C113.567 47.4962 113.292 47.004 113.237 46.1168L109.244 46.3632ZM111.237 50.7877C112.441 51.8501 113.904 52.368 115.513 52.368V48.368C114.817 48.368 114.312 48.1659 113.884 47.7883L111.237 50.7877ZM115.513 52.368C116.763 52.368 117.971 52.079 119.003 51.3644L116.726 48.0756C116.51 48.225 116.15 48.368 115.513 48.368V52.368ZM119.011 51.3585C119.995 50.6701 120.703 49.7351 121.098 48.601L117.32 47.287C117.202 47.6249 117.014 47.8739 116.718 48.0815L119.011 51.3585ZM119.209 49.944H121.561V45.944H119.209V49.944ZM119.634 47.4075C119.401 48.2453 118.952 48.9074 118.241 49.4458L120.656 52.6342C122.058 51.5726 123.017 50.1707 123.487 48.4805L119.634 47.4075ZM118.256 49.4342C117.608 49.9158 116.736 50.216 115.513 50.216V54.216C117.425 54.216 119.178 53.7322 120.641 52.6458L118.256 49.4342ZM115.513 50.216C114.575 50.216 113.8 50.0091 113.136 49.6344L111.169 53.1176C112.489 53.8629 113.954 54.216 115.513 54.216V50.216ZM113.148 49.6413C112.504 49.2718 111.993 48.7536 111.603 48.0404L108.094 49.9596C108.824 51.2944 109.849 52.3602 111.157 53.1107L113.148 49.6413ZM111.61 48.0518C111.229 47.3447 111.009 46.4795 111.009 45.4H107.009C107.009 47.0405 107.348 48.5753 108.088 49.9482L111.61 48.0518ZM111.009 45.4C111.009 44.3105 111.225 43.4512 111.591 42.7623L108.058 40.8857C107.336 42.2448 107.009 43.7694 107.009 45.4H111.009ZM111.591 42.7623C111.961 42.065 112.452 41.568 113.078 41.219L111.131 37.725C109.805 38.464 108.776 39.535 108.058 40.8857L111.591 42.7623ZM113.088 41.2136C113.744 40.8431 114.534 40.632 115.513 40.632V36.632C113.931 36.632 112.449 36.9809 111.121 37.7304L113.088 41.2136ZM115.513 40.632C116.461 40.632 117.217 40.8358 117.839 41.188L119.811 37.708C118.512 36.9722 117.06 36.632 115.513 36.632V40.632ZM117.839 41.188C118.473 41.5478 118.937 42.0249 119.268 42.6452L122.797 40.7628C122.104 39.4631 121.096 38.4362 119.811 37.708L117.839 41.188ZM119.287 42.6803C119.63 43.2943 119.825 44.0236 119.825 44.92H123.825C123.825 43.4164 123.491 42.0017 122.778 40.7277L119.287 42.6803ZM121.569 44.464C121.569 43.3317 121.315 42.2378 120.715 41.2721L117.318 43.3839C117.454 43.6022 117.569 43.9323 117.569 44.464H121.569ZM120.728 41.2924C120.158 40.3506 119.357 39.626 118.363 39.1534L116.646 42.7666C116.932 42.902 117.14 43.0894 117.306 43.3636L120.728 41.2924ZM118.417 39.1804C117.485 38.7021 116.471 38.48 115.417 38.48V42.48C115.898 42.48 116.277 42.5779 116.592 42.7396L118.417 39.1804ZM115.417 38.48C113.845 38.48 112.418 38.9975 111.248 40.0479L113.921 43.0241C114.319 42.6665 114.78 42.48 115.417 42.48V38.48ZM111.233 40.0617C110.026 41.1683 109.42 42.6468 109.273 44.2852L113.257 44.6428C113.334 43.7852 113.607 43.3117 113.936 43.0103L111.233 40.0617ZM111.265 46.464H119.569V42.464H111.265V46.464Z" fill="#36A7DB" fill-opacity="0.5"/>
</g>
<path d="M81.816 35.392V52H79.632V39.616L74.112 52H72.576L67.032 39.592V52H64.848V35.392H67.2L73.344 49.12L79.488 35.392H81.816ZM91.2559 52.216C90.0239 52.216 88.9039 51.936 87.8959 51.376C86.9039 50.816 86.1199 50.024 85.5439 49C84.9839 47.96 84.7039 46.76 84.7039 45.4C84.7039 44.056 84.9919 42.872 85.5679 41.848C86.1599 40.808 86.9599 40.016 87.9679 39.472C88.9759 38.912 90.1039 38.632 91.3519 38.632C92.5999 38.632 93.7279 38.912 94.7359 39.472C95.7439 40.016 96.5359 40.8 97.1119 41.824C97.7039 42.848 97.9999 44.04 97.9999 45.4C97.9999 46.76 97.6959 47.96 97.0879 49C96.4959 50.024 95.6879 50.816 94.6639 51.376C93.6399 51.936 92.5039 52.216 91.2559 52.216ZM91.2559 50.296C92.0399 50.296 92.7759 50.112 93.4639 49.744C94.1519 49.376 94.7039 48.824 95.1199 48.088C95.5519 47.352 95.7679 46.456 95.7679 45.4C95.7679 44.344 95.5599 43.448 95.1439 42.712C94.7279 41.976 94.1839 41.432 93.5119 41.08C92.8399 40.712 92.1119 40.528 91.3279 40.528C90.5279 40.528 89.7919 40.712 89.1199 41.08C88.4639 41.432 87.9359 41.976 87.5359 42.712C87.1359 43.448 86.9359 44.344 86.9359 45.4C86.9359 46.472 87.1279 47.376 87.5119 48.112C87.9119 48.848 88.4399 49.4 89.0959 49.768C89.7519 50.12 90.4719 50.296 91.2559 50.296ZM103.055 40.984C103.439 40.232 103.983 39.648 104.687 39.232C105.407 38.816 106.279 38.608 107.303 38.608V40.864H106.727C104.279 40.864 103.055 42.192 103.055 44.848V52H100.871V38.848H103.055V40.984ZM121.825 44.92C121.825 45.336 121.801 45.776 121.753 46.24H111.241C111.321 47.536 111.761 48.552 112.561 49.288C113.377 50.008 114.361 50.368 115.513 50.368C116.457 50.368 117.241 50.152 117.865 49.72C118.505 49.272 118.953 48.68 119.209 47.944H121.561C121.209 49.208 120.505 50.24 119.449 51.04C118.393 51.824 117.081 52.216 115.513 52.216C114.265 52.216 113.145 51.936 112.153 51.376C111.177 50.816 110.409 50.024 109.849 49C109.289 47.96 109.009 46.76 109.009 45.4C109.009 44.04 109.281 42.848 109.825 41.824C110.369 40.8 111.129 40.016 112.105 39.472C113.097 38.912 114.233 38.632 115.513 38.632C116.761 38.632 117.865 38.904 118.825 39.448C119.785 39.992 120.521 40.744 121.033 41.704C121.561 42.648 121.825 43.72 121.825 44.92ZM119.569 44.464C119.569 43.632 119.385 42.92 119.017 42.328C118.649 41.72 118.145 41.264 117.505 40.96C116.881 40.64 116.185 40.48 115.417 40.48C114.313 40.48 113.369 40.832 112.585 41.536C111.817 42.24 111.377 43.216 111.265 44.464H119.569Z" fill="white"/>
<defs>
<filter id="filter0_f_250_516" x="0" y="0" width="184" height="88" filterUnits="userSpaceOnUse" color-interpolation-filters="sRGB">
<feFlood flood-opacity="0" result="BackgroundImageFix"/>
<feBlend mode="normal" in="SourceGraphic" in2="BackgroundImageFix" result="shape"/>
<feGaussianBlur stdDeviation="4" result="effect1_foregroundBlur_250_516"/>
</filter>
<filter id="filter1_f_250_516" x="60.848" y="31.392" width="64.9766" height="24.824" filterUnits="userSpaceOnUse" color-interpolation-filters="sRGB">
<feFlood flood-opacity="0" result="BackgroundImageFix"/>
<feBlend mode="normal" in="SourceGraphic" in2="BackgroundImageFix" result="shape"/>
<feGaussianBlur stdDeviation="2" result="effect1_foregroundBlur_250_516"/>
</filter>
</defs>
</svg>
